<svg xmlns="http://www.w3.org/2000/svg" viewBox="0 0 425.05 425.27"><defs><style>.cls-1{fill:#fff;}</style></defs><g id="Capa_2" data-name="Capa 2"><g id="Capa_1-2" data-name="Capa 1"><path class="cls-1" d="M199.22,0h26.57c1.07.23,2.12.52,3.2.69,10.91,1.69,22,2.7,32.71,5.15C343.55,24.55,408,93.1,421.82,175.9c1.3,7.75,2.16,15.57,3.23,23.36v26.56a20.59,20.59,0,0,0-.64,2.39c-1.42,9.83-2.24,19.8-4.3,29.5-28,131.68-173.1,204.58-295.37,148.47C34.44,364.74-14.83,269,4,171.43,20.51,85.62,89.71,17.87,175.88,3.21,183.62,1.9,191.44,1.06,199.22,0ZM100.16,199.9a389.86,389.86,0,0,1,10.53-79.15L61.2,101.53C40,130.4,27.91,163.2,25.36,199.9Zm-39,123.63,49.52-19.19a387.56,387.56,0,0,1-10.54-79.08H25.34C28,261.89,40,294.65,61.19,323.53Zm338.49-123.6C397,163.11,385,130.28,363.81,101.54L314.3,120.76a388.43,388.43,0,0,1,10.54,79.17ZM324.8,225.21a389.88,389.88,0,0,1-10.44,79.11l49.45,19.24a185.29,185.29,0,0,0,35.84-98.35ZM199.93,133.94l-65-7.26a339,339,0,0,0-9.7,73.11h74.7Zm90.14-7.27-64.88,7.26v65.91h74.63A344.29,344.29,0,0,0,290.07,126.67ZM199.76,291.15V225.3H125.18A342.29,342.29,0,0,0,135,298.4Zm25.43-66v66l64.92,7.28a346,346,0,0,0,9.68-73.25Zm0-199.1v82.79l57.93-6.32c-2.86-7-5-13-7.66-18.7-8-17.63-17.68-34.21-33-46.62C237.46,33.13,231.56,30.1,225.22,26.07Zm-25.4,82.81V26.57c-32.49,15.45-45.41,44.68-58,75.94Zm25.31,288.59c7.51-1.3,18.4-8.91,27.44-19.28,14-16,22.88-34.8,30.1-54.93a350.82,350.82,0,0,0-57.54-6.21ZM199.85,317a337.08,337.08,0,0,0-57.67,6.44c2.63,6.41,4.79,12.23,7.36,17.86,8.11,17.75,17.84,34.44,33.33,46.86,5,4,10.76,6.89,17,10.8ZM277.29,36.37c5.73,9.76,11.77,19,16.75,28.81S303,85.31,307.81,96.37l39.24-14.61C326.41,60.94,303.58,46,277.29,36.37Zm-.15,352c26.54-9.4,49.4-24.22,69.9-45L307.27,328.5C299.62,350.33,290.3,370.25,277.14,388.32ZM147.93,36.71C121.39,46.06,98.55,61,78,81.77l39.79,14.79C125.4,74.59,134.81,54.76,147.93,36.71ZM78.47,343.12C90.84,359.27,135,387.53,148.24,388c-13.63-17.84-22.84-37.82-30.52-59.51Z"/></g></g></svg>